# xmcd
#
# Track frame offsets:
#	150
#	12315
#	22595
#	39501
#	48823
#	57993
#	70946
#	85243
#	95457
#	106016
#	119502
#	130098
#	143090
#	155453
#	170445
#	179771
#	191346
#	203458
#	221985
#	235343
#	246217
#	257730
#	272438
#	286288
#	300696
#	314242
#	323776
#	339111
#	349828
#
# Disc length: 4827 seconds
#
# Revision: 1
# Processed by: cddbd v1.5.1PL0 Copyright (c) Steve Scherf et al.
# Submitted via: audiograbber 1.83.01
#
DISCID=9d12d91d
DTITLE=Hank Schnow and Jet Atkins - Country
DYEAR=1957
DGENRE=Country
TTITLE0=Blue Eyes Crying'in The Rain
TTITLE1=Reminiscing
TTITLE2=Prisoner's Song
TTITLE3=La Cucaracha
TTITLE4=Darktown Strutter's Ball
TTITLE5=Poison Love
TTITLE6=Paper Roses
TTITLE7=Waltz, Kitty Waltz
TTITLE8=In An Old Dutch Garden
TTITLE9=The Only Rose
TTITLE10=Tiptoeing
TTITLE11=In Daddy's Footsteps
TTITLE12=The Highest Bidder
TTITLE13=Indian Love Call
TTITLE14=The Wayward Wind
TTITLE15=Under The Double Eagle
TTITLE16=Green Green Grass Of Home
TTITLE17=Cool Water
TTITLE18=Beautiful Dreamer
TTITLE19=When Mixican Joe Met Hole Bloth
TTITLE20=San Antonio Rose
TTITLE21=I'll Not Forget My Mother Prayer
TTITLE22=The Drunkard's Son
TTITLE23=My Sweet Texas Vluebonnet Queen
TTITLE24=I Washed My Hands In Muddy Water
TTITLE25=Carnival Of Venice
TTITLE26=Nobody's Child
TTITLE27=Blue Tango
TTITLE28=If The Devil Danced In Empty Pockets
EXTD=
EXTT0=
EXTT1=
EXTT2=
EXTT3=
EXTT4=
EXTT5=
EXTT6=
EXTT7=
EXTT8=
EXTT9=
EXTT10=
EXTT11=
EXTT12=
EXTT13=
EXTT14=
EXTT15=
EXTT16=
EXTT17=
EXTT18=
EXTT19=
EXTT20=
EXTT21=
EXTT22=
EXTT23=
EXTT24=
EXTT25=
EXTT26=
EXTT27=
EXTT28=
PLAYORDER=
